<svg width="116" height="20" viewBox="0 0 116 20" fill="none" xmlns="http://www.w3.org/2000/svg">
<path d="M9.53823 1.60996C9.70902 1.19932 10.2907 1.19932 10.4615 1.60996L12.5276 6.57744C12.5996 6.75056 12.7624 6.86885 12.9493 6.88383L18.3121 7.31376C18.7555 7.3493 18.9352 7.90256 18.5975 8.19189L14.5116 11.6919C14.3692 11.8139 14.307 12.0053 14.3505 12.1876L15.5988 17.4208C15.702 17.8534 15.2314 18.1954 14.8518 17.9635L10.2605 15.1592C10.1005 15.0615 9.89927 15.0615 9.73926 15.1592L5.14795 17.9635C4.7684 18.1954 4.29777 17.8534 4.40097 17.4208L5.64927 12.1876C5.69278 12.0053 5.63059 11.8139 5.4882 11.6919L1.4023 8.19189C1.06453 7.90256 1.2443 7.3493 1.68762 7.31376L7.05043 6.88383C7.23733 6.86885 7.40013 6.75056 7.47214 6.57744L9.53823 1.60996Z" fill="#FEC84B"/>
<path d="M57.5382 1.60996C57.709 1.19932 58.2907 1.19932 58.4615 1.60996L60.5276 6.57744C60.5996 6.75056 60.7624 6.86885 60.9493 6.88383L66.3121 7.31376C66.7555 7.3493 66.9352 7.90256 66.5975 8.19189L62.5116 11.6919C62.3692 11.8139 62.307 12.0053 62.3505 12.1876L63.5988 17.4208C63.702 17.8534 63.2314 18.1954 62.8518 17.9635L58.2605 15.1592C58.1005 15.0615 57.8993 15.0615 57.7393 15.1592L53.1479 17.9635C52.7684 18.1954 52.2978 17.8534 52.401 17.4208L53.6493 12.1876C53.6928 12.0053 53.6306 11.8139 53.4882 11.6919L49.4023 8.19189C49.0645 7.90256 49.2443 7.3493 49.6876 7.31376L55.0504 6.88383C55.2373 6.86885 55.4001 6.75056 55.4721 6.57744L57.5382 1.60996Z" fill="#FEC84B"/>
<path d="M105.538 1.60996C105.709 1.19932 106.291 1.19932 106.461 1.60996L108.528 6.57744C108.6 6.75056 108.762 6.86885 108.949 6.88383L114.312 7.31376C114.755 7.3493 114.935 7.90256 114.597 8.19189L110.512 11.6919C110.369 11.8139 110.307 12.0053 110.35 12.1876L111.599 17.4208C111.702 17.8534 111.231 18.1954 110.852 17.9635L106.26 15.1592C106.1 15.0615 105.899 15.0615 105.739 15.1592L101.148 17.9635C100.768 18.1954 100.298 17.8534 100.401 17.4208L101.649 12.1876C101.693 12.0053 101.631 11.8139 101.488 11.6919L97.4023 8.19189C97.0645 7.90256 97.2443 7.3493 97.6876 7.31376L103.05 6.88383C103.237 6.86885 103.4 6.75056 103.472 6.57744L105.538 1.60996Z" fill="#FEC84B"/>
<path d="M81.5382 1.60996C81.709 1.19932 82.2907 1.19932 82.4615 1.60996L84.5276 6.57744C84.5996 6.75056 84.7624 6.86885 84.9493 6.88383L90.3121 7.31376C90.7555 7.3493 90.9352 7.90256 90.5975 8.19189L86.5116 11.6919C86.3692 11.8139 86.307 12.0053 86.3505 12.1876L87.5988 17.4208C87.702 17.8534 87.2314 18.1954 86.8518 17.9635L82.2605 15.1592C82.1005 15.0615 81.8993 15.0615 81.7393 15.1592L77.1479 17.9635C76.7684 18.1954 76.2978 17.8534 76.401 17.4208L77.6493 12.1876C77.6928 12.0053 77.6306 11.8139 77.4882 11.6919L73.4023 8.19189C73.0645 7.90256 73.2443 7.3493 73.6876 7.31376L79.0504 6.88383C79.2373 6.86885 79.4001 6.75056 79.4721 6.57744L81.5382 1.60996Z" fill="#FEC84B"/>
<path d="M33.5382 1.60996C33.709 1.19932 34.2907 1.19932 34.4615 1.60996L36.5276 6.57744C36.5996 6.75056 36.7624 6.86885 36.9493 6.88383L42.3121 7.31376C42.7555 7.3493 42.9352 7.90256 42.5975 8.19189L38.5116 11.6919C38.3692 11.8139 38.307 12.0053 38.3505 12.1876L39.5988 17.4208C39.702 17.8534 39.2314 18.1954 38.8518 17.9635L34.2605 15.1592C34.1005 15.0615 33.8993 15.0615 33.7393 15.1592L29.1479 17.9635C28.7684 18.1954 28.2978 17.8534 28.401 17.4208L29.6493 12.1876C29.6928 12.0053 29.6306 11.8139 29.4882 11.6919L25.4023 8.19189C25.0645 7.90256 25.2443 7.3493 25.6876 7.31376L31.0504 6.88383C31.2373 6.86885 31.4001 6.75056 31.4721 6.57744L33.5382 1.60996Z" fill="#FEC84B"/>
</svg>
